<svg width="16" height="15" viewBox="0 0 16 15" fill="none" xmlns="http://www.w3.org/2000/svg">
    <path opacity="0.4"
        d="M9.37872 10.222L9.38165 10.2246L8.67853 11.0156C8.61241 11.0896 8.53139 11.1487 8.44081 11.189C8.35023 11.2294 8.25212 11.2502 8.15294 11.25H7.06251V12.4219C7.06251 12.6084 6.98843 12.7872 6.85657 12.9191C6.72471 13.0509 6.54586 13.125 6.35938 13.125H5.18751V14.2969C5.18751 14.4834 5.11343 14.6622 4.98157 14.7941C4.84971 14.9259 4.67086 15 4.48438 15H1.20313C1.01665 15 0.837805 14.9259 0.705943 14.7941C0.574081 14.6622 0.500002 14.4834 0.500002 14.2969V12.0117C0.499775 11.9193 0.517771 11.8277 0.552961 11.7423C0.58815 11.6568 0.639842 11.5791 0.70508 11.5137L5.4462 6.77256L5.44298 6.76231C5.73061 7.6377 6.24727 8.42018 6.93934 9.02853C7.63141 9.63688 8.47367 10.049 9.37872 10.222Z"
        fill="black" fill-opacity="0.5" />
    <path
        d="M10.3438 0C9.32395 0 8.32704 0.302409 7.4791 0.868985C6.63115 1.43556 5.97026 2.24086 5.58 3.18304C5.18973 4.12522 5.08762 5.16197 5.28658 6.16218C5.48553 7.1624 5.97662 8.08115 6.69773 8.80227C7.41885 9.52338 8.33761 10.0145 9.33782 10.2134C10.338 10.4124 11.3748 10.3103 12.317 9.92C13.2592 9.52974 14.0645 8.86885 14.631 8.02091C15.1976 7.17297 15.5 6.17606 15.5 5.15625C15.5 3.78873 14.9568 2.47722 13.9898 1.51023C13.0228 0.543246 11.7113 0 10.3438 0V0ZM11.75 5.15625C11.4719 5.15625 11.2 5.07377 10.9687 4.91925C10.7375 4.76473 10.5572 4.54511 10.4508 4.28815C10.3444 4.03119 10.3165 3.74844 10.3708 3.47565C10.425 3.20287 10.559 2.9523 10.7556 2.75563C10.9523 2.55896 11.2029 2.42503 11.4757 2.37077C11.7484 2.31651 12.0312 2.34436 12.2882 2.45079C12.5451 2.55723 12.7647 2.73747 12.9193 2.96873C13.0738 3.19999 13.1563 3.47187 13.1563 3.75C13.1563 4.12296 13.0081 4.48065 12.7444 4.74437C12.4807 5.00809 12.123 5.15625 11.75 5.15625Z"
        fill="black" fill-opacity="0.5" />
</svg>