<svg width="13" height="16" viewBox="0 0 13 16" fill="none" xmlns="http://www.w3.org/2000/svg">
    <path opacity="0.4"
        d="M10.2143 4C10.2143 4.79113 9.99645 5.56448 9.58832 6.22228C9.18019 6.88008 8.6001 7.39277 7.9214 7.69552C7.24271 7.99827 6.49589 8.07748 5.77539 7.92314C5.05489 7.7688 4.39306 7.38784 3.87361 6.82843C3.35416 6.26902 3.00041 5.55629 2.85709 4.78036C2.71377 4.00444 2.78733 3.20017 3.06846 2.46927C3.34958 1.73836 3.82565 1.11365 4.43646 0.674122C5.04727 0.234596 5.76539 0 6.50001 0C7.4851 0 8.42984 0.421427 9.1264 1.17157C9.82297 1.92172 10.2143 2.93913 10.2143 4Z"
        fill="black" fill-opacity="0.5" />
    <path
        d="M9.1 9H8.6154C7.95212 9.32936 7.2304 9.49992 6.5 9.49992C5.7696 9.49992 5.04788 9.32936 4.3846 9H3.9C2.86573 9.00025 1.87388 9.44283 1.14254 10.2304C0.411197 11.018 0.000230787 12.0862 0 13.2L0 14.5C0 14.8978 0.146747 15.2794 0.407958 15.5607C0.66917 15.842 1.02345 16 1.39286 16H11.6071C11.9766 16 12.3308 15.842 12.592 15.5607C12.8533 15.2794 13 14.8978 13 14.5V13.2C12.9998 12.0862 12.5888 11.018 11.8575 10.2304C11.1261 9.44283 10.1343 9.00025 9.1 9Z"
        fill="black" fill-opacity="0.5" />
</svg>